<?xml version="1.0" standalone="no"?>
<!DOCTYPE svg PUBLIC "-//W3C//DTD SVG 20010904//EN"
 "http://www.w3.org/TR/2001/REC-SVG-20010904/DTD/svg10.dtd">
<svg version="1.0" xmlns="http://www.w3.org/2000/svg"
 width="200.000000pt" height="200.000000pt" viewBox="0 0 200.000000 200.000000"
 preserveAspectRatio="xMidYMid meet">

<g transform="translate(0.000000,200.000000) scale(0.100000,-0.100000)"
fill="#000000" stroke="none">
<path d="M0 1000 l0 -1000 1000 0 1000 0 0 1000 0 1000 -1000 0 -1000 0 0
-1000z m1230 870 c334 -80 596 -356 666 -699 21 -108 15 -302 -14 -408 -83
-305 -323 -545 -634 -633 -112 -32 -296 -38 -419 -12 -166 34 -330 123 -450
244 -344 343 -354 896 -24 1246 229 244 550 339 875 262z"/>
<path d="M861 1799 c-177 -35 -367 -149 -477 -287 -365 -460 -158 -1118 406
-1293 64 -20 96 -24 220 -24 163 0 226 13 345 70 240 115 410 334 455 586 18
98 13 253 -10 344 -77 301 -330 544 -627 601 -81 15 -241 17 -312 3z m-431
-684 c30 -16 60 -51 60 -71 0 -25 -34 -24 -70 1 -41 28 -82 27 -99 -3 -9 -15
-11 -15 -30 2 -29 27 -26 43 12 66 38 24 87 26 127 5z m310 -25 l0 -30 -66 0
c-58 0 -65 -2 -54 -15 8 -10 31 -15 66 -15 53 0 54 0 54 -30 l0 -30 -67 0
c-64 0 -69 2 -105 37 -31 30 -38 44 -38 75 l0 38 105 0 105 0 0 -30z m124 1
l28 -29 -26 -4 c-52 -6 -25 -23 45 -28 59 -4 74 -9 90 -29 26 -32 24 -67 -6
-96 -22 -23 -31 -25 -125 -25 l-100 0 0 30 0 29 93 3 c100 3 127 21 37 26 -82
3 -98 9 -115 42 -20 38 -19 52 6 84 26 33 39 33 73 -3z m156 -1 c0 -29 -1 -30
-48 -30 -41 0 -53 5 -77 30 l-29 30 77 0 77 0 0 -30z m222 -85 c37 -60 68
-113 68 -117 0 -5 -15 -8 -33 -8 -32 0 -37 5 -102 113 -37 61 -70 116 -73 120
-2 5 13 7 34 5 36 -3 40 -7 106 -113z m148 109 c0 -12 -92 -154 -99 -154 -4 0
-13 12 -20 26 -10 22 -7 32 21 80 29 48 36 54 65 54 18 0 33 -3 33 -6z m80
-36 l0 -42 -30 29 c-16 16 -30 35 -30 42 0 8 12 13 30 13 29 0 30 -2 30 -42z
m280 12 c0 -29 -2 -30 -45 -30 l-45 0 0 -42 0 -42 -30 29 c-16 16 -30 35 -30
42 0 9 -15 13 -45 13 -43 0 -45 1 -45 30 l0 30 120 0 120 0 0 -30z m-280 -147
l0 -63 -30 0 -30 0 0 92 0 92 30 -29 c27 -26 30 -35 30 -92z m-1188 90 c9 -10
23 -33 32 -50 22 -43 58 -52 96 -24 34 25 80 28 80 6 0 -8 -13 -29 -28 -46
-60 -67 -178 -43 -210 43 -14 36 -10 88 7 88 4 0 15 -8 23 -17z m862 -24 c6
-19 1 -35 -24 -77 -29 -46 -37 -52 -67 -52 -19 0 -33 3 -31 8 19 44 93 152
102 149 6 -2 15 -15 20 -28z m-474 -69 l70 0 0 -30 0 -30 -105 0 -105 0 0 68
1 67 34 -37 c34 -37 37 -38 105 -38z m990 -27 c0 -30 -3 -33 -30 -33 l-30 0 0
62 0 62 30 -29 c22 -21 30 -38 30 -62z"/>
</g>
</svg>
